inDegrees=no
num_controls=7
num_derivatives=13
num_iterations=112
num_multipliers=7
num_parameters=0
num_slacks=7
num_states=26
objective=0.545169
objective_accelerations=0.041546
objective_balance=0.003800
objective_effort=0.040708
objective_height=0.449655
objective_ligament=0.009460
solver_duration=1153.541960
status=Solve_Succeeded
success=true
DataType=double
version=3
OpenSimVersion=4.5
endheader
time	/jointset/ground_pelvis/pelvis_tilt/value	/jointset/ground_pelvis/pelvis_tx/value	/jointset/ground_pelvis/pelvis_ty/value	/jointset/hip_r/hip_flexion_r/value	/jointset/hip_r/hip_adduction_r/value	/jointset/hip_r/hip_rotation_r/value	/jointset/back/lumbar_extension/value	/jointset/patellofemoral_r/patellar_flexion_r/value	/jointset/knee_r/knee_flexion_r/value	/jointset/knee_r/knee_adduction_r/value	/jointset/knee_r/knee_rotation_r/value	/jointset/ankle_r/ankle_angle_r/value	/jointset/subtalar_r/subtalar_angle_r/value	/jointset/ground_pelvis/pelvis_tilt/speed	/jointset/ground_pelvis/pelvis_tx/speed	/jointset/ground_pelvis/pelvis_ty/speed	/jointset/hip_r/hip_flexion_r/speed	/jointset/hip_r/hip_adduction_r/speed	/jointset/hip_r/hip_rotation_r/speed	/jointset/back/lumbar_extension/speed	/jointset/patellofemoral_r/patellar_flexion_r/speed	/jointset/knee_r/knee_flexion_r/speed	/jointset/knee_r/knee_adduction_r/speed	/jointset/knee_r/knee_rotation_r/speed	/jointset/ankle_r/ankle_angle_r/speed	/jointset/subtalar_r/subtalar_angle_r/speed	/forceset/tau_hip_flexion_r	/forceset/tau_hip_adduction_r	/forceset/tau_hip_rotation_r	/forceset/tau_knee_flexion_r	/forceset/tau_ankle_angle_r	/forceset/tau_subtalar_angle_r	/forceset/tau_lumbar_extension	lambda_cid13_p0	lambda_cid14_p0	lambda_cid14_p1	lambda_cid14_p2	lambda_cid14_p3	lambda_cid14_p4	lambda_cid14_p5	/jointset/ground_pelvis/pelvis_tilt/accel	/jointset/ground_pelvis/pelvis_tx/accel	/jointset/ground_pelvis/pelvis_ty/accel	/jointset/hip_r/hip_flexion_r/accel	/jointset/hip_r/hip_adduction_r/accel	/jointset/hip_r/hip_rotation_r/accel	/jointset/back/lumbar_extension/accel	/jointset/patellofemoral_r/patellar_flexion_r/accel	/jointset/knee_r/knee_flexion_r/accel	/jointset/knee_r/knee_adduction_r/accel	/jointset/knee_r/knee_rotation_r/accel	/jointset/ankle_r/ankle_angle_r/accel	/jointset/subtalar_r/subtalar_angle_r/accel	gamma_cid13_p0	gamma_cid14_p0	gamma_cid14_p1	gamma_cid14_p2	gamma_cid14_p3	gamma_cid14_p4	gamma_cid14_p5
1	-0.3965715013599817	-0.04486040369290877	0.7027242485455183	1.464342690328926	-0.2309629547507631	-0.06200618389361213	-0.4363281104926999	1.16614385324306	1.16614385324285	-0.02843411050101751	0.1745261081850395	0.2864969029467758	0.06100141368840341	-0.001023751001609959	0.002791536758519349	0.01345963307478012	-0.03657097854953542	0.0009807168829456809	-0.008495709047432479	-5.102750305771789e-05	-0.0461060831820377	-0.04610608318203276	0.002805462582667275	3.532891621707166e-05	-0.01003418479748892	-0.001503329712545215	-0.338301103598583	0.01240369916613197	0.01221475095958721	-0.3951433425044408	0.0561315225988115	-0.0001639217073531944	0.3303567965869151	-2.778263209123301	-30.6147889864737	-4.702702130249872	0.377109211879083	13.31655778017799	-785.2358456197541	52.91044997363887	1.740650414938207	0.2254761640321348	1.457603797574474	-5.300360286789243	0.06935759840052988	-0.7368551408665996	-0.01183581542220143	-4.3088628448346	-4.308862844835484	0.3494876262552056	0.009872918157518965	-0.8990875773937631	-0.1607048605528952	5.514842729796358e-10	-1.452667394654887e-10	7.119374622240155e-09	6.215034520170757e-09	1.40218490253806e-09	-3.629288986510684e-09	6.100988262618645e-09
1.01	-0.396495612254023	-0.04482131622684537	0.7029315980226959	1.463713039687966	-0.2309495751751852	-0.06212741352312778	-0.4363285879226244	1.165467252948255	1.165467252948192	-0.02838821307243541	0.1745265139961255	0.2863513355799561	0.06097839800420645	0.01618533221935734	0.005020227919736802	0.0280108853906631	-0.08934848877370594	0.001698279160749731	-0.01574867520282103	-6.540165785831311e-05	-0.08924480612781001	-0.08924480612781417	0.00637999834072561	4.036831452509553e-05	-0.01910605019583243	-0.003103504218108873	-0.3377998874172723	0.01241585267360009	0.01223469669618962	-0.3952790355558663	0.05646158515168615	-0.0002547108347983863	0.3299483556683874	-2.804152833862911	-30.50709033490937	-4.726501642938685	0.3845896088275094	13.32268987049517	-785.0708527577857	52.88353725975877	1.708601681570551	0.2207065915551265	1.453977905916947	-5.264847022853243	0.07341998362355405	-0.7192863970172703	0.0006203079918512624	-4.321001772436184	-4.321001772437018	0.3623346869252806	-0.004997756838750957	-0.9152508044658026	-0.1602247814138628	9.988538407561604e-10	1.511762225269757e-10	1.382460416333962e-08	1.106622585745238e-08	1.397230979890604e-09	-7.447407165076353e-09	1.167848578965834e-08
1.02	-0.396248119434675	-0.04476011364929207	0.7032844784144968	1.462555933818242	-0.2309289270885981	-0.06232112662302679	-0.4363298373893703	1.164358340473392	1.164358340473482	-0.02830639065900714	0.1745268067596957	0.2861142466024709	0.06093927036778273	0.03329699167610908	0.007214559056501951	0.04256581599945519	-0.1420620243027667	0.002434419084682234	-0.02299240312390181	-0.0002054348726199665	-0.1325685191930877	-0.1325685191930972	0.009990459552550011	1.27194125854368e-05	-0.02833850693062132	-0.004725720157903013	-0.3372986712359565	0.0124280061810669	0.01225464243283723	-0.3954147286072889	0.05679164770456005	-0.0003454999622468338	0.3295399147498637	-2.846828204477941	-30.40823971416602	-4.749014425515427	0.3886254543421765	13.34168480174849	-785.04597819345	52.87156204559235	1.721165662095048	0.2186041591417151	1.458339456156306	-5.287565347767311	0.07307312762621422	-0.7350074940050517	-0.03696762741430652	-4.345860868735686	-4.345860868735802	0.3566727170084242	0.003335258107992046	-0.9312058446827781	-0.1651131473989811	1.13760864966315e-09	4.955054118836221e-10	2.059169538201028e-08	1.617753342243661e-08	1.169873226968502e-09	-9.19828494845011e-09	1.61821061507593e-08
1.03	-0.3958301080269665	-0.04467698503386117	0.7037828526928724	1.460872128218529	-0.230900868406996	-0.06258717253488752	-0.436332094727094	1.162815529576199	1.162815529576081	-0.02818821835581945	0.1745267138284835	0.2857842941198789	0.06088382954804617	0.05027667709522507	0.009420823560767691	0.05710219028457012	-0.1946756474442324	0.003176410106490529	-0.03020944504379951	-0.0001634963624120484	-0.1759985191095456	-0.1759985191095355	0.01365600971160848	-3.201810734171511e-05	-0.03765257722281851	-0.006363758845534502	-0.3373220423497936	0.01248117573443721	0.01227465250541757	-0.3950132448905594	0.05687889676207118	-0.0003809020276677874	0.3297234267659027	-2.906692231267223	-30.37702910205124	-4.75235100070203	0.3816485825327804	13.20362903757116	-785.0581418950417	52.84024847097837	1.682078749298984	0.2230867124977971	1.45025680995474	-5.244743119095305	0.07463064126022462	-0.7139532264280966	0.03715503825982338	-4.342298638146687	-4.342298638143695	0.3733013055461435	-0.008480281051442733	-0.9315967755133573	-0.1633395748370563	1.273214328377593e-09	8.403232362133728e-10	2.735941784228881e-08	2.129149523464231e-08	9.402460472068622e-10	-1.0928068442077e-08	2.067476858159557e-08
1.04	-0.3952431580115675	-0.04457150395010191	0.7044263847931526	1.45866288992305	-0.2308654161048147	-0.06292516900303785	-0.4363314565902025	1.16083827286283	1.160838272862508	-0.02803302952300412	0.1745261531172719	0.2853611831035603	0.06081197027235496	0.06708471321350282	0.01168505272217772	0.07159738038035476	-0.2471485634560649	0.003913143200381445	-0.03738251438153582	0.0003736600686587228	-0.2194576824278358	-0.2194576824278049	0.0173937654783304	-8.083658760326144e-05	-0.04697021367602038	-0.008009411348838775	-0.3373454134636408	0.01253434528780593	0.01229466257802423	-0.3946117611738261	0.05696614581958449	-0.0004163040930911976	0.3299069387819311	-2.984274220488614	-30.35477612204692	-4.754317334890424	0.3710965359630196	13.07897373938041	-785.2117652761414	52.82441061198802	1.686835801927363	0.2301970905706105	1.45010261829026	-5.259423921840674	0.07202154204273198	-0.7262129775727788	0.06207595675833524	-4.351693549102149	-4.351693549102036	0.371113838541119	0.002519066041123765	-0.9319190768836557	-0.1666359105335289	1.424616040195294e-09	9.310859799804986e-10	3.387168423718374e-08	2.615364247269625e-08	1.237240714652081e-09	-1.283010409389348e-08	2.47426669240509e-08
